<?xml version="1.0" encoding="UTF-8" standalone="no"?>
<!DOCTYPE svg PUBLIC "-//W3C//DTD SVG 1.1//EN"
"http://www.w3.org/Graphics/SVG/1.1/DTD/svg11.dtd">
<svg viewBox="0 0 1245 1767" version="1.1" xmlns="http://www.w3.org/2000/svg" xmlns:xlink="http://www.w3.org/1999/xlink">
<defs>
<clipPath id="c0"><path d="M0,1767.1V0H1245.4V1767.1Z"/></clipPath>
<style type="text/css"><![CDATA[
.g0{
fill: #666766;
fill-opacity: 0.39999402;
}
.g1{
fill: #1A8BAB;
}
.g2{
fill: #FFFFFF;
}
.g3{
fill: #5AC6CC;
}
.g4{
fill: #74808A;
}
]]></style>
</defs>
<path d="M512.9,1678.8l-.5,2.3L129.5,1606.5l.5,-2.3Z" class="g0"/>
<path d="M119,1591.9c7.4,-5.9,18.2,-4.7,24.2,2.7c5.9,7.4,4.7,18.2,-2.7,24.1c-7.4,6,-18.2,4.8,-24.1,-2.6c-6,-7.4,-4.8,-18.2,2.6,-24.2Z" class="g0"/>
<path d="M12.9,1324.4c5.4,-4.3,13.2,-3.5,17.6,1.9c4.3,5.4,3.4,13.2,-1.9,17.6c-5.4,4.3,-13.3,3.4,-17.6,-1.9c-4.3,-5.4,-3.5,-13.3,1.9,-17.6Z" class="g0"/>
<path d="M194,1090.2c5.4,-4.4,13.2,-3.5,17.6,1.9c4.3,5.3,3.4,13.2,-1.9,17.5c-5.4,4.4,-13.3,3.5,-17.6,-1.9c-4.3,-5.4,-3.5,-13.2,1.9,-17.5Z" class="g0"/>
<path d="M235.4,1404.5c7.4,-6,18.2,-4.8,24.2,2.6c5.9,7.4,4.8,18.2,-2.6,24.2c-7.4,5.9,-18.2,4.7,-24.2,-2.7c-5.9,-7.4,-4.8,-18.2,2.6,-24.1Z" class="g0"/>
<path d="M327,828.1c7.3,-6,18.2,-4.8,24.1,2.6c6,7.4,4.8,18.2,-2.6,24.2c-7.4,5.9,-18.2,4.7,-24.2,-2.7c-5.9,-7.4,-4.7,-18.2,2.7,-24.1Z" class="g0"/>
<path d="M330.9,1188.5c7.4,-5.9,18.2,-4.8,24.1,2.6c6,7.4,4.8,18.2,-2.6,24.2c-7.4,5.9,-18.2,4.8,-24.2,-2.6c-5.9,-7.4,-4.7,-18.2,2.7,-24.2Z" class="g0"/>
<path d="M534.4,1164c7.4,-6,18.2,-4.8,24.1,2.6c6,7.4,4.8,18.2,-2.6,24.1c-7.4,6,-18.2,4.8,-24.1,-2.6c-6,-7.4,-4.8,-18.2,2.6,-24.1Z" class="g0"/>
<path d="M501.9,1666.6c7.4,-6,18.2,-4.8,24.1,2.6c6,7.4,4.8,18.2,-2.6,24.1c-7.4,6,-18.2,4.8,-24.1,-2.6c-6,-7.4,-4.8,-18.2,2.6,-24.1Z" class="g0"/>
<path d="M683.3,998.1c7.4,-6,18.2,-4.8,24.2,2.6c5.9,7.4,4.8,18.2,-2.6,24.2c-7.4,5.9,-18.2,4.7,-24.2,-2.7c-5.9,-7.4,-4.8,-18.2,2.6,-24.1Z" class="g0"/>
<path d="M146.6,681.9c7.4,-5.9,18.2,-4.8,24.1,2.6c6,7.4,4.8,18.2,-2.6,24.2c-7.4,5.9,-18.2,4.7,-24.1,-2.6c-6,-7.4,-4.8,-18.3,2.6,-24.2Z" class="g0"/>
<path d="M10.3,901.4c7.4,-5.9,18.2,-4.8,24.1,2.6c6,7.4,4.8,18.2,-2.6,24.2c-7.4,5.9,-18.2,4.7,-24.1,-2.6c-6,-7.4,-4.8,-18.3,2.6,-24.2Z" class="g0"/>
<path d="M75.8,787.1c7.4,-5.9,18.2,-4.7,24.1,2.7c6,7.4,4.8,18.2,-2.6,24.1c-7.4,6,-18.2,4.8,-24.1,-2.6c-6,-7.4,-4.8,-18.2,2.6,-24.2Z" class="g0"/>
<path d="M67.4,1500.4c7.4,-5.9,18.2,-4.8,24.2,2.6c5.9,7.4,4.7,18.2,-2.6,24.2c-7.4,5.9,-18.3,4.8,-24.2,-2.6c-5.9,-7.4,-4.8,-18.2,2.6,-24.2Z" class="g0"/>
<path d="M247.2,1418.5L130.8,1605.9l-2,-1.2L245.2,1417.3Z" class="g0"/>
<g clip-path="url(#c0)">
<path d="M246.3,1416.7l-.2,2.3L-81.7,1404.5l.1,-2.4Z" class="g0"/>
<path d="M78.8,1512.8l-1.3,2L-82.3,1404.2l1.3,-1.9Z" class="g0"/>
<path d="M78.1,1512.6l.2,2.4l-223.8,21.5l-.2,-2.3Z" class="g0"/>
<path d="M21.1,1333l-.8,2.2L-131.1,1280l.8,-2.1Z" class="g0"/>
</g>
<path d="M202.8,1100.6L21.7,1334.8l-1.9,-1.4L200.9,1099.2Z" class="g0"/>
<g clip-path="url(#c0)">
<path d="M202.2,1098.8l-.8,2.2L-175.1,963.6l.8,-2.2Z" class="g0"/>
</g>
<path d="M546.3,1177.4L513.8,1680l-2.3,-.1L544,1177.3Z" class="g0"/>
<path d="M546.2,1177.9L373.4,1518.1l-2.1,-1L544.1,1176.8Z" class="g0"/>
<path d="M342.8,1201.8l35,307.1l-2.3,.3L340.5,1202Z" class="g0"/>
<path d="M341,1200.9l1.3,2l-118.4,75.6l-1.3,-2Z" class="g0"/>
<path d="M338.9,841.5l3.9,360.4h-2.3L336.6,841.5Z" class="g0"/>
<path d="M337.9,840.3l-.4,2.3L86.4,801.7l.3,-2.3Z" class="g0"/>
<path d="M87.6,801.1L22.1,915.4L20,914.2L85.5,800Z" class="g0"/>
<g clip-path="url(#c0)">
<path d="M21.9,914l-1.7,1.6L-85.7,804.3l1.7,-1.6Z" class="g0"/>
<path d="M158.2,694.5l-1.7,1.6L-82.3,456.7l1.6,-1.6Z" class="g0"/>
</g>
<path d="M342.3,1201l-1.4,1.8l-139.8,-102l1.4,-1.9Z" class="g0"/>
<path d="M338.8,842L202.9,1100.4l-2.1,-1.1L336.7,840.9Z" class="g0"/>
<path d="M202.7,1099.1l-1.7,1.6L20.2,915.6L21.9,914Z" class="g0"/>
<path d="M86.6,800.5L157.3,695.3Z" class="g0"/>
<g clip-path="url(#c0)">
<path d="M156.9,694.2l.9,2.2l-247,102.2l-.9,-2.2Z" class="g0"/>
<path d="M-80.4,455.4L87.6,800l-2.1,1L-82.5,456.4Z" class="g0"/>
</g>
<path d="M337.5,840.3l.5,2.3L16.3,919.9l-.5,-2.2Z" class="g0"/>
<path d="M87.6,800.1l115.3,299.4l-2.2,.8L85.5,800.9Z" class="g0"/>
<path d="M373.1,1516.7l-1.5,1.8L245.5,1418.8l1.4,-1.8Z" class="g0"/>
<path d="M223.2,1275.8l24.1,141.9l-2.2,.4L220.9,1276.2Z" class="g0"/>
<path d="M221.8,1274.9l.6,2.2L21.1,1335.3l-.7,-2.3Z" class="g0"/>
<g clip-path="url(#c0)">
<path d="M20.1,1333.2l1.3,1.9L-81,1404.3l-1.3,-2Z" class="g0"/>
<path d="M201.7,1098.7l.3,2.3l-214.5,23.6l-.3,-2.3Z" class="g0"/>
<path d="M157.4,694.1L-205.1,661.4v2.3l362.3,32.7Z" class="g0"/>
</g>
<path d="M246.6,1416.8l-.8,2.2L20.3,1335.2l.8,-2.2Z" class="g0"/>
<path d="M376.3,1508l.8,2.1l-246.9,96.3l-.9,-2.2Z" class="g0"/>
<path d="M377.6,1508.3l136,170.9l-1.9,1.5L375.8,1509.8Z" class="g0"/>
<path d="M342.7,1202.4l-95.4,215.9l-2.2,-.9l95.5,-216Z" class="g0"/>
<g clip-path="url(#c0)">
<path d="M15.8,917.7l.5,2.2l-190.7,43.7l-.5,-2.3Z" class="g0"/>
</g>
<path d="M545,1176.2l.3,2.3l-203.5,24.6l-.3,-2.4Z" class="g0"/>
<path d="M338.7,840.9l207.5,335.8l-2,1.3L336.7,842.1Z" class="g0"/>
<path d="M158.3,695.9L87.5,801.2l-1.9,-1.3L156.4,694.6Z" class="g0"/>
<path d="M338.5,840.6l-1.5,1.8L156.6,696.2l1.5,-1.8Z" class="g0"/>
<path d="M79.2,1513.2l51.6,91.6l-2,1.1L77.2,1514.4Z" class="g0"/>
<g clip-path="url(#c0)">
<path d="M130.1,1604.2l-.6,2.3l-275.4,-70.1l.6,-2.2Z" class="g0"/>
</g>
<path d="M21.9,1333.8l57.4,179.6l-2.2,.8L19.6,1334.5Z" class="g0"/>
<path d="M562.3,787.4l-16.2,389.8l-2.3,-.1L559.9,787.3Z" class="g0"/>
<path d="M572.7,774.7c7,6.4,7.5,17.3,1.1,24.3c-6.5,7,-17.3,7.4,-24.3,1c-7,-6.4,-7.5,-17.3,-1.1,-24.3c6.4,-6.9,17.3,-7.4,24.3,-1Z" class="g0"/>
<path d="M600.4,491.8c7,6.4,7.5,17.3,1.1,24.3c-6.4,7,-17.3,7.4,-24.3,1c-7,-6.4,-7.4,-17.3,-1,-24.2c6.4,-7,17.3,-7.5,24.2,-1.1Z" class="g0"/>
<path d="M834.2,350.6c7,6.5,7.5,17.3,1,24.3c-6.4,7,-17.2,7.5,-24.2,1.1c-7,-6.4,-7.5,-17.3,-1.1,-24.3c6.4,-7,17.3,-7.5,24.3,-1.1Z" class="g0"/>
<path d="M1025.9,344.5c7,6.5,7.5,17.3,1.1,24.3c-6.4,7,-17.3,7.5,-24.3,1.1c-7,-6.4,-7.4,-17.3,-1,-24.3c6.4,-7,17.3,-7.5,24.2,-1.1Z" class="g0"/>
<path d="M738.6,535.3c7,6.4,7.5,17.3,1,24.3c-6.4,7,-17.2,7.5,-24.2,1.1c-7,-6.5,-7.5,-17.3,-1.1,-24.3c6.4,-7,17.3,-7.5,24.3,-1.1Z" class="g0"/>
<path d="M853,471.4c5.1,4.7,5.4,12.6,.7,17.6c-4.6,5.1,-12.5,5.5,-17.6,.8c-5.1,-4.7,-5.4,-12.6,-.8,-17.6c4.7,-5.1,12.6,-5.5,17.7,-.8Z" class="g0"/>
<path d="M821.2,629.5c5.1,4.7,5.5,12.6,.8,17.7c-4.7,5.1,-12.6,5.4,-17.7,.7c-5.1,-4.6,-5.4,-12.5,-.7,-17.6c4.6,-5.1,12.5,-5.4,17.6,-.8Z" class="g0"/>
<path d="M906.8,821.9c5.1,4.7,5.4,12.6,.7,17.7c-4.6,5.1,-12.5,5.4,-17.6,.7c-5.1,-4.6,-5.4,-12.5,-.8,-17.6c4.7,-5.1,12.6,-5.4,17.7,-.8Z" class="g0"/>
<path d="M1022.3,566.6c5,4.7,5.4,12.6,.7,17.7c-4.6,5.1,-12.5,5.4,-17.6,.7c-5.1,-4.6,-5.5,-12.5,-.8,-17.6c4.7,-5.1,12.6,-5.4,17.7,-.8Z" class="g0"/>
<path d="M1080.1,773.3c5.1,4.7,5.4,12.6,.7,17.6c-4.6,5.1,-12.5,5.5,-17.6,.8c-5.1,-4.7,-5.5,-12.6,-.8,-17.6c4.7,-5.1,12.6,-5.5,17.7,-.8Z" class="g0"/>
<path d="M775.6,861.6c6.9,6.4,7.4,17.3,1,24.2c-6.4,7,-17.3,7.5,-24.3,1.1c-7,-6.4,-7.4,-17.3,-1,-24.3c6.4,-7,17.3,-7.4,24.3,-1Z" class="g0"/>
<path d="M1003.4,923.4c7,6.4,7.5,17.3,1.1,24.3c-6.4,7,-17.3,7.4,-24.3,1c-7,-6.4,-7.4,-17.3,-1,-24.2c6.4,-7,17.2,-7.5,24.2,-1.1Z" class="g0"/>
<path d="M1058.3,1120.9c7,6.4,7.5,17.3,1.1,24.3c-6.4,7,-17.3,7.5,-24.3,1c-7,-6.4,-7.4,-17.2,-1,-24.2c6.4,-7,17.2,-7.5,24.2,-1.1Z" class="g0"/>
<path d="M556.6,1164.5c7,6.4,7.4,17.2,1,24.2c-6.4,7,-17.2,7.5,-24.2,1.1c-7,-6.4,-7.5,-17.3,-1.1,-24.3c6.4,-7,17.3,-7.5,24.3,-1Z" class="g0"/>
<path d="M389.2,1495.7c7,6.4,7.5,17.2,1,24.2c-6.4,7,-17.2,7.5,-24.2,1.1c-7,-6.4,-7.5,-17.3,-1.1,-24.3c6.4,-7,17.3,-7.4,24.3,-1Z" class="g0"/>
<path d="M227.7,1267.5c7,6.4,7.4,17.3,1,24.3c-6.4,6.9,-17.3,7.4,-24.2,1c-7,-6.4,-7.5,-17.3,-1.1,-24.3c6.4,-7,17.3,-7.4,24.3,-1Z" class="g0"/>
<g clip-path="url(#c0)">
<path d="M-3.1,1111c6.9,6.4,7.3,17.3,1,24.3c-6.4,7,-17.3,7.4,-24.2,1c-7,-6.4,-7.5,-17.3,-1.1,-24.3c6.4,-6.9,17.3,-7.4,24.3,-1Z" class="g0"/>
</g>
<path d="M1162.4,376.8c7,6.4,7.4,17.3,1,24.3c-6.4,7,-17.2,7.5,-24.2,1.1c-7,-6.5,-7.5,-17.3,-1.1,-24.3c6.4,-7,17.3,-7.5,24.3,-1.1Z" class="g0"/>
<g clip-path="url(#c0)">
<path d="M1239,563.3c7,6.4,7.5,17.2,1.1,24.2c-6.5,7,-17.3,7.5,-24.3,1.1c-7,-6.4,-7.5,-17.3,-1.1,-24.3c6.5,-7,17.3,-7.5,24.3,-1Z" class="g0"/>
</g>
<path d="M655.4,709.9c7,6.4,7.5,17.3,1.1,24.3c-6.4,7,-17.3,7.5,-24.3,1c-7,-6.4,-7.5,-17.2,-1,-24.2c6.4,-7,17.2,-7.5,24.2,-1.1Z" class="g0"/>
<path d="M764.4,873.2l-.9,2.1L560.6,788.4l1,-2.1Z" class="g0"/>
<path d="M730.1,547.7l35,326.4l-2.3,.3L727.8,548Z" class="g0"/>
<path d="M730,548.4L644.9,723.1l-2.1,-1L727.9,547.3Z" class="g0"/>
<path d="M590,504.2l54.9,218.1l-2.2,.6l-55,-218.2Z" class="g0"/>
<path d="M822,362.3l1.2,2L589.4,505.5l-1.2,-2Z" class="g0"/>
<path d="M1016.6,572.9l-1.1,2L844,481.6l1.1,-2Z" class="g0"/>
<path d="M845.7,480.8L813.9,639l-2.3,-.5L843.4,480.4Z" class="g0"/>
<path d="M1072.2,781.5l-1.1,2L812.2,639.8l1.1,-2.1Z" class="g0"/>
<path d="M1151.9,389.7l-79.1,393l-2.3,-.4l79.1,-393Z" class="g0"/>
<path d="M1151,388.4l-.5,2.2L1002.9,357.3l.5,-2.2Z" class="g0"/>
<path d="M1046.6,1132.4l.2,2.3l-501.7,43.6l-.2,-2.3Z" class="g0"/>
<path d="M1047.1,1132.5l-.7,2.2L684,1015.1l.7,-2.2Z" class="g0"/>
<path d="M991.5,934.9l.6,2.3l-298.4,80.9l-.6,-2.3Z" class="g0"/>
<path d="M992.7,935.3l-1.8,1.5L898.4,831.2l1.7,-1.5Z" class="g0"/>
<g clip-path="url(#c0)">
<path d="M1347.4,876.8l.3,2.3L992,937.2l-.4,-2.3Z" class="g0"/>
<path d="M1350.6,622.4l-.8,2.2L1227,577l.8,-2.2Z" class="g0"/>
<path d="M1322.4,455.1l-94.1,121.5l-1.8,-1.4l94.1,-121.5Z" class="g0"/>
</g>
<path d="M1072.7,783L992.9,936.6l-2.1,-1.1L1070.6,782Z" class="g0"/>
<g clip-path="url(#c0)">
<path d="M1347.9,876.8l-.7,2.2l-276,-95.4l.8,-2.2Z" class="g0"/>
</g>
<path d="M1228.3,576.6L1072.6,783.2l-1.9,-1.4L1226.5,575.2Z" class="g0"/>
<g clip-path="url(#c0)">
<path d="M1223.8,571.2l124.8,306.3l-2.1,.9L1221.6,572Z" class="g0"/>
<path d="M1349.6,622.5l1.2,2l-278.6,159l-1.2,-2Z" class="g0"/>
</g>
<path d="M765,874.8l-79.6,139.7l-2.1,-1.1L762.9,873.7Z" class="g0"/>
<path d="M900.2,827.9l.7,2.2L764.3,875.3l-.7,-2.2Z" class="g0"/>
<path d="M813.8,638.3l87.8,190.3l-2.1,.9L811.7,639.2Z" class="g0"/>
<path d="M813.6,638l-1.7,1.5L728.1,548.6l1.7,-1.5Z" class="g0"/>
<path d="M843.9,479.6l1.2,2L729.6,548.9l-1.2,-2Z" class="g0"/>
<path d="M1017.2,573.6l55.5,208.6l-2.2,.6L1014.9,574.2Z" class="g0"/>
<path d="M1151.7,390.2L1017,574.6l-1.9,-1.4L1149.8,388.8Z" class="g0"/>
<g clip-path="url(#c0)">
<path d="M1270.9,373.2l.1,2.3L1138.1,379v-2.3Z" class="g0"/>
</g>
<path d="M813.9,639L765.1,874.5l-2.3,-.5L811.6,638.5Z" class="g0"/>
<path d="M562.1,786.8l132.4,229.6l-2.1,1.1L560.1,787.9Z" class="g0"/>
<path d="M694.3,1017.8L545.8,1177.9l-1.7,-1.6L692.6,1016.2Z" class="g0"/>
<path d="M992.1,934.9l-.6,2.3L763.6,875.4l.6,-2.3Z" class="g0"/>
<path d="M1151.9,389.1l71.9,182.1l-2.2,.8L1149.7,389.9Z" class="g0"/>
<path d="M1012.5,357.5l1.4,1.9L845.2,481.5l-1.4,-1.8Z" class="g0"/>
<path d="M1016.9,573.1l-1.7,1.6L821.7,364.1l1.7,-1.6Z" class="g0"/>
<path d="M729.3,546.7l-.7,2.3L588.5,505.6l.7,-2.2Z" class="g0"/>
<path d="M823.7,363.1l22,117.3l-2.3,.4l-22,-117.3Z" class="g0"/>
<path d="M992.9,935.8l55,197.5l-2.3,.6L990.7,936.4Z" class="g0"/>
<g clip-path="url(#c0)">
<path d="M1348.3,878.8l-300.8,255.7l-1.5,-1.8L1346.8,877.1Z" class="g0"/>
</g>
<path d="M643.1,721.7l1.4,1.8l-82.7,64.8l-1.4,-1.9Z" class="g0"/>
<path d="M590,504.6L562.3,787.5l-2.4,-.3L587.7,504.4Z" class="g0"/>
<path d="M812.3,637.7l1,2.1l-169,83.8l-1,-2.1Z" class="g0"/>
<path d="M586.1,486.5c9.4,-1.6,18.3,4.7,19.8,14.1c1.5,9.4,-4.8,18.2,-14.2,19.7c-9.3,1.6,-18.2,-4.7,-19.7,-14.1c-1.5,-9.4,4.8,-18.2,14.1,-19.7Z" class="g0"/>
<g clip-path="url(#c0)">
<path d="M130.2,1606.4l-.9,-2.2l-334.4,134.1v2.6Z" class="g0"/>
<path d="M589,502.2l-.1,2.4L-82.6,456.2l.2,-2.3Z" class="g0"/>
<path d="M561.6,786.3l-1,2.1L-83,456.1l1,-2.1Z" class="g0"/>
</g>
<path d="M560.8,786.2l.6,2.3L338,842.6l-.6,-2.3Z" class="g0"/>
<path d="M588.5,502.3l.9,2.2L157.8,696.3l-.9,-2.1Z" class="g0"/>
<path d="M0,680.8V847.6l1245.4,505.6V154.6Z" class="g1"/>
<image preserveAspectRatio="none" x="0" y="137" width="1354" height="785" style="mix-blend-mode: multiply;" xlink:href="img/1.png"/>
<image x="0" y="0" width="1247" height="692" xlink:href="shade/1.png"/>
<image preserveAspectRatio="none" x="165" y="-126" width="683" height="2189" style="mix-blend-mode: multiply;" xlink:href="img/2.png"/>
<image preserveAspectRatio="none" x="0" y="849" width="1265" height="741" style="mix-blend-mode: multiply;" xlink:href="img/3.png"/>
<path d="M581.8,614.4h497.4v-1H581.8v1Z" class="g2"/>
<path d="M581.8,865.4h497.4v-1H581.8v1Z" class="g2"/>
<path d="M637.1,1430.9h-8.8c-1.6,0,-2.9,-1.4,-2.9,-3c0,-1.6,1.3,-2.9,2.9,-2.9h5.9v-22.5h-5.9c-1.6,0,-2.9,-1.3,-2.9,-2.9c0,-1.6,1.3,-3,2.9,-3h8.8c1.6,0,2.9,1.4,2.9,3v28.3c0,1.6,-1.3,3,-2.9,3Z" class="g3"/>
<path d="M637.1,1445.5c-1.6,0,-2.9,-1.3,-2.9,-2.9c0,-1.6,1.3,-2.9,2.9,-2.9c6.5,0,11.7,-5.3,11.7,-11.8v-28.3c0,-6.5,-5.2,-11.8,-11.7,-11.8c-1.6,0,-2.9,-1.3,-2.9,-2.9c0,-1.6,1.3,-2.9,2.9,-2.9c9.7,0,17.6,7.9,17.6,17.6v28.3c0,9.7,-7.9,17.6,-17.6,17.6Z" class="g3"/>
<path d="M704.5,1430.9h-8.8c-1.6,0,-2.9,-1.4,-2.9,-3v-28.3c0,-1.6,1.3,-3,2.9,-3h8.8c1.7,0,3,1.4,3,3c0,1.6,-1.3,2.9,-3,2.9h-5.8V1425h5.8c1.7,0,3,1.3,3,2.9c0,1.6,-1.3,3,-3,3Z" class="g3"/>
<path d="M695.7,1445.5c-9.7,0,-17.6,-7.9,-17.6,-17.6v-28.3c0,-9.7,7.9,-17.6,17.6,-17.6c1.7,0,3,1.3,3,2.9c0,1.6,-1.3,2.9,-3,2.9c-6.4,0,-11.7,5.3,-11.7,11.8v28.3c0,6.5,5.3,11.8,11.7,11.8c1.7,0,3,1.3,3,2.9c0,1.6,-1.3,2.9,-3,2.9Z" class="g3"/>
<path d="M687.6,1459.1c-.2,0,-.5,-.1,-.8,-.2c-13.7,-3.9,-23.3,-16.7,-23.3,-31v-28.3c0,-11.7,-7.9,-22.2,-19.1,-25.4c-1.6,-.4,-2.5,-2.1,-2,-3.6c.4,-1.6,2.1,-2.5,3.6,-2c13.8,3.9,23.4,16.7,23.4,31v28.3c0,11.7,7.8,22.2,19,25.4c1.6,.4,2.5,2.1,2.1,3.6c-.4,1.3,-1.6,2.2,-2.9,2.2Z" class="g3"/>
<path d="M674.8,1382c-.8,0,-1.5,-.2,-2.1,-.8c-1.2,-1.1,-1.2,-3,0,-4.2c3.9,-4,8.8,-6.9,14.1,-8.4c1.6,-.5,3.2,.4,3.7,2c.4,1.5,-.5,3.2,-2.1,3.6c-4.3,1.3,-8.3,3.7,-11.6,6.9c-.5,.6,-1.3,.9,-2,.9Z" class="g3"/>
<path d="M645.2,1459.1c-1.3,0,-2.4,-.9,-2.8,-2.2c-.5,-1.5,.4,-3.2,2,-3.6c4.4,-1.3,8.4,-3.7,11.6,-6.9c1.1,-1.2,3,-1.2,4.1,-.1c1.2,1.1,1.2,3,.1,4.2c-3.9,4,-8.8,6.9,-14.2,8.4c-.3,.1,-.5,.2,-.8,.2Z" class="g3"/>
<path d="M756.9,1425H739.1l19.6,-22.2c2.1,-2.4,.4,-6.2,-2.8,-6.2H733.8c-1.5,0,-2.8,1,-3,2.5c-.3,1.8,1.1,3.4,2.8,3.4h16.8l-19.5,22.2c-2.2,2.4,-.4,6.2,2.8,6.2h23c1.5,0,2.9,-1,3.1,-2.5c.3,-1.8,-1.1,-3.4,-2.9,-3.4Z" class="g4"/>
<path d="M785,1425.4c-6.3,0,-11.1,-5.2,-11.1,-11.6c0,-6.4,4.8,-11.6,11.1,-11.6c6.2,0,10.3,5.2,10.3,11.6c0,6.4,-4.1,11.6,-10.3,11.6m.5,-29.5c-4.8,0,-8.8,2.2,-11.6,5.5v-1.1c0,-1.8,-1.2,-3.4,-2.9,-3.7c-2.1,-.3,-4,1.4,-4,3.5v37.6c0,1.7,1.2,3.3,2.9,3.6c2.1,.3,4,-1.4,4,-3.5v-11.6c2.8,3.3,6.8,5.4,11.6,5.4c9.9,0,17.2,-8,17.2,-17.8c0,-9.9,-7.3,-17.9,-17.2,-17.9Z" class="g4"/>
<path d="M815.3,1411c1,-5.1,5,-8.9,9.8,-8.9c4.8,0,8.8,3.8,9.9,8.9Zm9.8,-15.1c-9.4,0,-17,8,-17,17.9c0,9.8,7.6,17.8,17,17.8c4.6,0,8.5,-1.1,11.8,-3.4c1.8,-1.3,1.9,-4,.2,-5.4c-1.1,-.9,-2.7,-.8,-4,.1c-2.3,1.8,-4.7,2.6,-8,2.6c-4.7,0,-8.6,-3.6,-9.8,-8.6H839c1.7,0,3.1,-1.4,3.1,-3.2c0,-9.8,-7.6,-17.8,-17,-17.8Z" class="g4"/>
<path d="M848.6,1395.9c.6,0,.9,-.3,.9,-.7c0,-.4,-.3,-.7,-.9,-.7H848v1.4Zm.6,.3l.8,1.4h-.5l-.7,-1.3H848v1.3h-.4v-3.5h1c.9,0,1.3,.5,1.3,1.1c0,.5,-.2,.9,-.7,1m2.6,-.3c0,-1.8,-1.4,-3.3,-3.2,-3.3c-1.8,0,-3.3,1.5,-3.3,3.3c0,1.8,1.5,3.2,3.3,3.2c1.8,0,3.2,-1.4,3.2,-3.2m.3,0c0,1.9,-1.6,3.4,-3.5,3.4c-1.9,0,-3.5,-1.5,-3.5,-3.4c0,-2,1.6,-3.5,3.5,-3.5c1.9,0,3.5,1.5,3.5,3.5Z" class="g4"/>
<path d="M866.2,1415.1v.1c0,2,.4,4,1.2,5.9c.8,1.8,1.8,3.5,3.2,4.9c1.3,1.4,3,2.5,4.8,3.3c1.9,.8,3.9,1.3,6,1.3c2,0,3.8,-.4,5.6,-1c1.8,-.7,3.3,-1.7,4.7,-3c.2,-.1,.4,-.2,.5,-.3c.2,-.1,.4,0,.6,.1c.2,.2,.3,.4,.3,.6c0,.2,-.1,.4,-.3,.6c-.7,.7,-1.5,1.3,-2.3,1.8c-.9,.6,-1.8,1.1,-2.8,1.4c-1,.4,-2,.7,-3.1,.9c-1,.2,-2.1,.3,-3.1,.3c-2.3,0,-4.5,-.4,-6.5,-1.3c-2,-.9,-3.8,-2.1,-5.3,-3.6c-1.5,-1.5,-2.7,-3.3,-3.6,-5.3c-.9,-2,-1.3,-4.2,-1.3,-6.5v-.6c0,-2.3,.4,-4.5,1.3,-6.5c.9,-2.1,2.1,-3.9,3.6,-5.4c1.5,-1.5,3.3,-2.7,5.3,-3.6c2,-.9,4.2,-1.4,6.5,-1.4c1,0,2.1,.1,3.1,.3c1.1,.2,2.1,.5,3.1,.9c1,.4,1.9,.9,2.8,1.4c.8,.6,1.6,1.2,2.3,1.9c.2,.2,.3,.4,.3,.6c0,.2,-.1,.4,-.3,.5c-.2,.2,-.4,.3,-.6,.2c-.1,-.1,-.3,-.2,-.5,-.3c-1.4,-1.3,-2.9,-2.3,-4.7,-3c-1.8,-.7,-3.6,-1,-5.6,-1c-2.1,0,-4.1,.4,-5.9,1.2c-1.9,.9,-3.5,2,-4.9,3.4c-1.3,1.4,-2.4,3,-3.2,4.9c-.8,1.9,-1.2,3.9,-1.2,6c0,0,0,.1,0,.1q0,.1,0,.1c0,0,0,.1,0,.1Z" class="g4"/>
<path d="M899.7,1430.9c0,.2,-.1,.4,-.2,.5c-.2,.2,-.3,.2,-.5,.2c-.2,0,-.4,0,-.5,-.2c-.2,-.1,-.2,-.3,-.2,-.5v-44.4c0,-.2,0,-.4,.2,-.5c.1,-.1,.3,-.2,.5,-.2c.2,0,.3,.1,.5,.2c.1,.1,.2,.3,.2,.5Z" class="g4"/>
<path d="M907.5,1421c.8,1.9,1.9,3.6,3.3,5c1.4,1.4,3.1,2.5,5,3.4c1.9,.8,3.9,1.2,6.1,1.2c2.2,0,4.3,-.4,6.2,-1.2c1.9,-.9,3.5,-2,4.9,-3.4c1.4,-1.4,2.5,-3.1,3.3,-5c.8,-1.8,1.2,-3.9,1.2,-6c0,-2.2,-.4,-4.2,-1.2,-6.1c-.8,-1.9,-1.9,-3.5,-3.3,-4.9c-1.4,-1.5,-3,-2.6,-4.9,-3.4c-1.9,-.8,-4,-1.2,-6.2,-1.2c-2.2,0,-4.2,.4,-6.1,1.2c-1.9,.8,-3.6,1.9,-5,3.4c-1.4,1.4,-2.5,3,-3.3,4.9c-.8,1.9,-1.2,3.9,-1.2,6.1c0,2.1,.4,4.2,1.2,6m-1.3,-12.7c.9,-2.1,2.1,-3.9,3.7,-5.4c1.5,-1.5,3.3,-2.8,5.4,-3.7c2,-.8,4.3,-1.3,6.6,-1.3c2.4,0,4.6,.5,6.7,1.3c2.1,.9,3.9,2.2,5.4,3.7c1.5,1.5,2.8,3.3,3.6,5.4c.9,2.1,1.4,4.3,1.4,6.7c0,2.4,-.5,4.6,-1.4,6.7c-.8,2,-2.1,3.8,-3.6,5.4c-1.5,1.5,-3.3,2.8,-5.4,3.7c-2.1,.9,-4.3,1.3,-6.7,1.3c-2.3,0,-4.6,-.4,-6.6,-1.3c-2.1,-.9,-3.9,-2.2,-5.4,-3.7c-1.6,-1.6,-2.8,-3.4,-3.7,-5.4c-.9,-2.1,-1.4,-4.3,-1.4,-6.7c0,-2.4,.5,-4.6,1.4,-6.7Z" class="g4"/>
<path d="M944.6,1397.9c.4,0,.7,.3,.7,.8v16.6c0,5,1,8.7,3.1,11.1c2,2.5,4.9,3.7,8.6,3.7c1.8,0,3.5,-.4,5.2,-1.1c1.6,-.8,3,-1.8,4.3,-3.2c1.2,-1.3,2.1,-2.9,2.9,-4.7c.7,-1.7,1,-3.7,1,-5.8v-16.6c0,-.2,.1,-.4,.3,-.6c.1,-.1,.3,-.2,.5,-.2c.1,0,.3,.1,.5,.2c.1,.2,.2,.4,.2,.6v32.1c0,.3,-.1,.5,-.2,.6c-.2,.2,-.3,.2,-.5,.2c-.5,0,-.8,-.2,-.8,-.8v-9c-.6,1.4,-1.3,2.7,-2.2,3.9c-1,1.2,-2,2.3,-3.2,3.1c-1.2,.9,-2.4,1.6,-3.8,2.1c-1.4,.5,-2.8,.7,-4.3,.7c-2.1,0,-3.9,-.4,-5.5,-1.1c-1.6,-.7,-3,-1.7,-4.1,-3.1c-1.1,-1.3,-2,-3,-2.6,-5.1c-.6,-2,-.9,-4.3,-.9,-7v-16.6c0,-.5,.3,-.8,.8,-.8Z" class="g4"/>
<path d="M979.5,1421c.8,1.9,1.9,3.5,3.4,5c1.4,1.4,3,2.5,4.9,3.3c1.9,.9,4,1.3,6.2,1.3c2.2,0,4.2,-.4,6.1,-1.3c1.9,-.8,3.6,-1.9,5,-3.3c1.4,-1.5,2.5,-3.1,3.3,-5c.8,-1.9,1.2,-3.9,1.2,-6c0,-2.2,-.4,-4.3,-1.2,-6.1c-.8,-1.9,-1.9,-3.6,-3.3,-5c-1.4,-1.4,-3.1,-2.5,-5,-3.3c-1.9,-.8,-3.9,-1.2,-6.1,-1.2c-2.2,0,-4.3,.4,-6.2,1.2c-1.9,.8,-3.5,1.9,-4.9,3.3c-1.4,1.4,-2.5,3.1,-3.3,5c-.8,1.8,-1.3,3.9,-1.3,6.1c0,2.1,.4,4.1,1.2,6m31.5,9.9c0,.2,-.1,.4,-.2,.5c-.2,.2,-.3,.2,-.5,.2c-.2,0,-.4,0,-.5,-.2c-.2,-.1,-.2,-.3,-.2,-.5v-9c-.7,1.5,-1.6,2.8,-2.6,4.1c-1.1,1.2,-2.3,2.3,-3.6,3.2c-1.4,.9,-2.8,1.6,-4.4,2.1c-1.6,.5,-3.3,.7,-5,.7c-2.4,0,-4.6,-.4,-6.7,-1.3c-2.1,-.9,-3.9,-2.1,-5.4,-3.7c-1.6,-1.5,-2.8,-3.3,-3.7,-5.4c-.9,-2.1,-1.3,-4.3,-1.3,-6.6c0,-2.4,.4,-4.7,1.3,-6.7c.9,-2.1,2.1,-3.9,3.7,-5.4c1.5,-1.6,3.3,-2.8,5.4,-3.7c2.1,-.9,4.3,-1.3,6.7,-1.3c1.7,0,3.4,.3,5,.7c1.6,.5,3,1.2,4.4,2.1c1.3,.9,2.5,2,3.6,3.2c1,1.3,1.9,2.6,2.6,4.1v-21.5c0,-.2,0,-.4,.2,-.5c.1,-.1,.3,-.2,.5,-.2c.2,0,.3,.1,.5,.2c.1,.1,.2,.3,.2,.5Z" class="g4"/>
<path d="M58.6,113.3H49.8c-1.7,0,-3,-1.3,-3,-2.9c0,-1.6,1.3,-2.9,3,-2.9h5.8V85H49.8c-1.7,0,-3,-1.3,-3,-2.9c0,-1.7,1.3,-3,3,-3h8.8c1.6,0,2.9,1.3,2.9,3v28.3c0,1.6,-1.3,2.9,-2.9,2.9Z" class="g3"/>
<path d="M58.6,128c-1.7,0,-3,-1.3,-3,-2.9c0,-1.7,1.3,-3,3,-3c6.4,0,11.7,-5.2,11.7,-11.7V82.1C70.3,75.6,65,70.3,58.6,70.3c-1.7,0,-3,-1.3,-3,-2.9c0,-1.6,1.3,-2.9,3,-2.9c9.7,0,17.6,7.8,17.6,17.6v28.3c0,9.7,-7.9,17.6,-17.6,17.6Z" class="g3"/>
<path d="M126,113.3h-8.8c-1.6,0,-2.9,-1.3,-2.9,-2.9V82.1c0,-1.7,1.3,-3,2.9,-3H126c1.6,0,2.9,1.3,2.9,3c0,1.6,-1.3,2.9,-2.9,2.9h-5.9v22.5H126c1.6,0,2.9,1.3,2.9,2.9c0,1.6,-1.3,2.9,-2.9,2.9Z" class="g3"/>
<path d="M117.2,128c-9.7,0,-17.6,-7.9,-17.6,-17.6V82.1c0,-9.8,7.9,-17.6,17.6,-17.6c1.6,0,2.9,1.3,2.9,2.9c0,1.6,-1.3,2.9,-2.9,2.9c-6.5,0,-11.7,5.3,-11.7,11.8v28.3c0,6.5,5.2,11.7,11.7,11.7c1.6,0,2.9,1.3,2.9,3c0,1.6,-1.3,2.9,-2.9,2.9Z" class="g3"/>
<path d="M109.1,141.5c-.3,0,-.5,0,-.8,-.1C94.5,137.5,85,124.7,85,110.4V82.1C85,70.3,77.1,59.9,65.9,56.7C64.3,56.2,63.4,54.6,63.8,53c.5,-1.5,2.1,-2.4,3.7,-2c13.7,4,23.3,16.7,23.3,31.1v28.3c0,11.7,7.9,22.1,19.1,25.4c1.6,.4,2.5,2,2,3.6c-.4,1.3,-1.5,2.1,-2.8,2.1Z" class="g3"/>
<path d="M96.2,64.5c-.7,0,-1.5,-.3,-2,-.8C93,62.5,93,60.7,94.1,59.5c3.9,-4,8.8,-6.9,14.2,-8.5c1.5,-.4,3.2,.5,3.6,2c.5,1.6,-.4,3.2,-2,3.7c-4.4,1.2,-8.4,3.6,-11.6,6.9c-.6,.6,-1.3,.9,-2.1,.9Z" class="g3"/>
<path d="M66.7,141.5c-1.3,0,-2.5,-.8,-2.9,-2.1c-.4,-1.6,.5,-3.2,2.1,-3.6c4.3,-1.3,8.3,-3.7,11.6,-7c1.1,-1.1,2.9,-1.1,4.1,0c1.2,1.1,1.2,3,0,4.1c-3.9,4,-8.8,7,-14.1,8.5c-.3,.1,-.6,.1,-.8,.1Z" class="g3"/>
<path d="M178.4,107.5H160.6L180.2,85.3c2.1,-2.4,.4,-6.2,-2.8,-6.2H155.3c-1.5,0,-2.8,1,-3.1,2.5c-.3,1.8,1.1,3.4,2.9,3.4h16.8l-19.6,22.1c-2.1,2.4,-.4,6.2,2.8,6.2h23.1c1.5,0,2.8,-1,3.1,-2.4c.3,-1.8,-1.1,-3.4,-2.9,-3.4Z" class="g2"/>
<path d="M206.4,107.8c-6.2,0,-11,-5.2,-11,-11.5c0,-6.4,4.8,-11.6,11,-11.6c6.3,0,10.4,5.2,10.4,11.6c0,6.3,-4.1,11.5,-10.4,11.5M207,78.4c-4.9,0,-8.8,2.2,-11.6,5.5V82.7c0,-1.7,-1.2,-3.3,-2.9,-3.6c-2.2,-.3,-4,1.3,-4,3.4v37.6c0,1.8,1.1,3.4,2.8,3.6c2.2,.4,4.1,-1.3,4.1,-3.4V108.7c2.8,3.2,6.7,5.4,11.6,5.4c9.8,0,17.1,-8,17.1,-17.8c0,-9.9,-7.3,-17.9,-17.1,-17.9Z" class="g2"/>
<path d="M236.7,93.5c1.1,-5.1,5.1,-9,9.9,-9c4.8,0,8.8,3.9,9.8,9Zm9.9,-15.1c-9.4,0,-17,8,-17,17.9c0,9.8,7.6,17.8,17,17.8c4.6,0,8.5,-1.1,11.7,-3.5c1.8,-1.2,2,-4,.3,-5.3c-1.2,-.9,-2.7,-.9,-4,.1c-2.4,1.8,-4.8,2.6,-8,2.6c-4.7,0,-8.6,-3.7,-9.8,-8.6h23.7c1.7,0,3.1,-1.5,3.1,-3.2c-.1,-9.8,-7.7,-17.8,-17,-17.8Z" class="g2"/>
<path d="M270.1,78.3c.6,0,.8,-.2,.8,-.6c0,-.4,-.2,-.7,-.8,-.7h-.6v1.3Zm.6,.4l.8,1.4H271l-.8,-1.3h-.7v1.3H269V76.5h1.1c.9,0,1.3,.6,1.3,1.2c0,.5,-.2,.8,-.7,1m2.6,-.4c0,-1.8,-1.5,-3.2,-3.3,-3.2c-1.7,0,-3.2,1.4,-3.2,3.2c0,1.8,1.5,3.3,3.2,3.3c1.8,0,3.3,-1.5,3.3,-3.3m.2,0c0,2,-1.5,3.5,-3.5,3.5c-1.9,0,-3.4,-1.5,-3.4,-3.5c0,-1.9,1.5,-3.4,3.4,-3.4c2,0,3.5,1.5,3.5,3.4Z" class="g2"/>
</svg>